# xmcd CD Database Entry
#
# Track frame offsets:
# 150
# 27597
# 37083
# 53658
# 76992
# 97237
# 113936
# 128033
# 142326
# 153248
#
# Disc length: 2270 seconds
#
# Revision: 1
# Processed by: cddbd v1.4PL0 Copyright (c) Steve Scherf et al.
# Submitted via: tcd 2.0b
#
DISCID=8c08dc0a
DTITLE=Неизвестный - Неизвестный
DYEAR=1900
DGENRE=
TTITLE0=Трек 1
TTITLE1=Трек 2
TTITLE2=Трек 3
TTITLE3=Трек 4
TTITLE4=Трек 5
TTITLE5=Трек 6
TTITLE6=Трек 7
TTITLE7=Трек 8
TTITLE8=Трек 9
TTITLE9=Трек 10
EXTD=
EXTT0=
EXTT1=
EXTT2=
EXTT3=
EXTT4=
EXTT5=
EXTT6=
EXTT7=
EXTT8=
EXTT9=
PLAYORDER=
